<svg width="34" height="35" viewBox="0 0 34 35" fill="none" xmlns="http://www.w3.org/2000/svg">
<path d="M28.3346 17.5V31.6667H5.66797V17.5" stroke="#262626" stroke-width="1.5" stroke-linecap="round" stroke-linejoin="round"/>
<path d="M31.1654 10.4167H2.83203V17.5001H31.1654V10.4167Z" stroke="#262626" stroke-width="1.5" stroke-linecap="round" stroke-linejoin="round"/>
<path d="M17 31.6667V10.4167" stroke="#262626" stroke-width="1.5" stroke-linecap="round" stroke-linejoin="round"/>
<path d="M16.9987 10.4166H10.6237C9.68439 10.4166 8.78355 10.0434 8.11936 9.37926C7.45517 8.71506 7.08203 7.81423 7.08203 6.87492C7.08203 5.93561 7.45517 5.03477 8.11936 4.37058C8.78355 3.70639 9.68439 3.33325 10.6237 3.33325C15.582 3.33325 16.9987 10.4166 16.9987 10.4166Z" stroke="#262626" stroke-width="1.5" stroke-linecap="round" stroke-linejoin="round"/>
<path d="M17 10.4166H23.375C24.3143 10.4166 25.2151 10.0434 25.8793 9.37926C26.5435 8.71506 26.9167 7.81423 26.9167 6.87492C26.9167 5.93561 26.5435 5.03477 25.8793 4.37058C25.2151 3.70639 24.3143 3.33325 23.375 3.33325C18.4167 3.33325 17 10.4166 17 10.4166Z" stroke="#262626" stroke-width="1.5" stroke-linecap="round" stroke-linejoin="round"/>
</svg>
