<svg width="34" height="35" viewBox="0 0 34 35" fill="none" xmlns="http://www.w3.org/2000/svg">
<path d="M23.375 13.8166L10.625 6.46411" stroke="#262626" stroke-width="1.5" stroke-linecap="round" stroke-linejoin="round"/>
<path d="M29.75 23.1666V11.8333C29.7495 11.3364 29.6183 10.8484 29.3697 10.4183C29.121 9.98809 28.7636 9.63087 28.3333 9.38244L18.4167 3.71578C17.9859 3.4671 17.4974 3.33618 17 3.33618C16.5026 3.33618 16.0141 3.4671 15.5833 3.71578L5.66667 9.38244C5.23637 9.63087 4.87897 9.98809 4.63032 10.4183C4.38167 10.8484 4.25051 11.3364 4.25 11.8333V23.1666C4.25051 23.6635 4.38167 24.1515 4.63032 24.5816C4.87897 25.0118 5.23637 25.369 5.66667 25.6174L15.5833 31.2841C16.0141 31.5328 16.5026 31.6637 17 31.6637C17.4974 31.6637 17.9859 31.5328 18.4167 31.2841L28.3333 25.6174C28.7636 25.369 29.121 25.0118 29.3697 24.5816C29.6183 24.1515 29.7495 23.6635 29.75 23.1666Z" stroke="#262626" stroke-width="1.5" stroke-linecap="round" stroke-linejoin="round"/>
<path d="M4.63281 10.3601L17.0003 17.5143L29.3678 10.3601" stroke="#262626" stroke-width="1.5" stroke-linecap="round" stroke-linejoin="round"/>
<path d="M17 31.78V17.5" stroke="#262626" stroke-width="1.5" stroke-linecap="round" stroke-linejoin="round"/>
</svg>
