<svg width="76" height="12" viewBox="0 0 76 12" fill="none" xmlns="http://www.w3.org/2000/svg">
<g clip-path="url(#clip0_221_5623)">
<path d="M10.9906 5.36159L8.87657 7.20659L9.50985 9.95347C9.54336 10.0971 9.5338 10.2474 9.48236 10.3855C9.43092 10.5237 9.33989 10.6437 9.22064 10.7304C9.10139 10.8172 8.95922 10.8668 8.8119 10.8732C8.66458 10.8796 8.51865 10.8424 8.39235 10.7663L5.99657 9.31315L3.60595 10.7663C3.47965 10.8424 3.33372 10.8796 3.1864 10.8732C3.03908 10.8668 2.89691 10.8172 2.77766 10.7304C2.65841 10.6437 2.56738 10.5237 2.51594 10.3855C2.4645 10.2474 2.45494 10.0971 2.48845 9.95347L3.12079 7.2094L1.00626 5.36159C0.894421 5.26513 0.813549 5.1378 0.773787 4.99557C0.734024 4.85333 0.737142 4.70252 0.782747 4.56205C0.828353 4.42158 0.914417 4.2977 1.03015 4.20594C1.14588 4.11419 1.28612 4.05865 1.43329 4.04628L4.22048 3.80487L5.30845 1.20987C5.36526 1.07371 5.4611 0.957398 5.58388 0.875587C5.70666 0.793776 5.85091 0.750122 5.99845 0.750122C6.14599 0.750122 6.29023 0.793776 6.41302 0.875587C6.5358 0.957398 6.63163 1.07371 6.68845 1.20987L7.7797 3.80487L10.5659 4.04628C10.7131 4.05865 10.8534 4.11419 10.9691 4.20594C11.0848 4.2977 11.1709 4.42158 11.2165 4.56205C11.2621 4.70252 11.2652 4.85333 11.2255 4.99557C11.1857 5.1378 11.1048 5.26513 10.993 5.36159H10.9906Z" fill="#262626"/>
</g>
<g clip-path="url(#clip1_221_5623)">
<path d="M26.9906 5.36159L24.8766 7.20659L25.5099 9.95347C25.5434 10.0971 25.5338 10.2474 25.4824 10.3855C25.4309 10.5237 25.3399 10.6437 25.2206 10.7304C25.1014 10.8172 24.9592 10.8668 24.8119 10.8732C24.6646 10.8796 24.5186 10.8424 24.3924 10.7663L21.9966 9.31315L19.6059 10.7663C19.4797 10.8424 19.3337 10.8796 19.1864 10.8732C19.0391 10.8668 18.8969 10.8172 18.7777 10.7304C18.6584 10.6437 18.5674 10.5237 18.5159 10.3855C18.4645 10.2474 18.4549 10.0971 18.4884 9.95347L19.1208 7.2094L17.0063 5.36159C16.8944 5.26513 16.8135 5.1378 16.7738 4.99557C16.734 4.85333 16.7371 4.70252 16.7827 4.56205C16.8284 4.42158 16.9144 4.2977 17.0301 4.20594C17.1459 4.11419 17.2861 4.05865 17.4333 4.04628L20.2205 3.80487L21.3084 1.20987C21.3653 1.07371 21.4611 0.957398 21.5839 0.875587C21.7067 0.793776 21.8509 0.750122 21.9984 0.750122C22.146 0.750122 22.2902 0.793776 22.413 0.875587C22.5358 0.957398 22.6316 1.07371 22.6884 1.20987L23.7797 3.80487L26.5659 4.04628C26.7131 4.05865 26.8534 4.11419 26.9691 4.20594C27.0848 4.2977 27.1709 4.42158 27.2165 4.56205C27.2621 4.70252 27.2652 4.85333 27.2255 4.99557C27.1857 5.1378 27.1048 5.26513 26.993 5.36159H26.9906Z" fill="#262626"/>
</g>
<g clip-path="url(#clip2_221_5623)">
<path d="M42.9906 5.36159L40.8766 7.20659L41.5099 9.95347C41.5434 10.0971 41.5338 10.2474 41.4824 10.3855C41.4309 10.5237 41.3399 10.6437 41.2206 10.7304C41.1014 10.8172 40.9592 10.8668 40.8119 10.8732C40.6646 10.8796 40.5186 10.8424 40.3924 10.7663L37.9966 9.31315L35.6059 10.7663C35.4797 10.8424 35.3337 10.8796 35.1864 10.8732C35.0391 10.8668 34.8969 10.8172 34.7777 10.7304C34.6584 10.6437 34.5674 10.5237 34.5159 10.3855C34.4645 10.2474 34.4549 10.0971 34.4884 9.95347L35.1208 7.2094L33.0063 5.36159C32.8944 5.26513 32.8135 5.1378 32.7738 4.99557C32.734 4.85333 32.7371 4.70252 32.7827 4.56205C32.8284 4.42158 32.9144 4.2977 33.0301 4.20594C33.1459 4.11419 33.2861 4.05865 33.4333 4.04628L36.2205 3.80487L37.3084 1.20987C37.3653 1.07371 37.4611 0.957398 37.5839 0.875587C37.7067 0.793776 37.8509 0.750122 37.9984 0.750122C38.146 0.750122 38.2902 0.793776 38.413 0.875587C38.5358 0.957398 38.6316 1.07371 38.6884 1.20987L39.7797 3.80487L42.5659 4.04628C42.7131 4.05865 42.8534 4.11419 42.9691 4.20594C43.0848 4.2977 43.1709 4.42158 43.2165 4.56205C43.2621 4.70252 43.2652 4.85333 43.2255 4.99557C43.1857 5.1378 43.1048 5.26513 42.993 5.36159H42.9906Z" fill="#262626"/>
</g>
<g clip-path="url(#clip3_221_5623)">
<path d="M58.9906 5.36159L56.8766 7.20659L57.5099 9.95347C57.5434 10.0971 57.5338 10.2474 57.4824 10.3855C57.4309 10.5237 57.3399 10.6437 57.2206 10.7304C57.1014 10.8172 56.9592 10.8668 56.8119 10.8732C56.6646 10.8796 56.5186 10.8424 56.3924 10.7663L53.9966 9.31315L51.6059 10.7663C51.4797 10.8424 51.3337 10.8796 51.1864 10.8732C51.0391 10.8668 50.8969 10.8172 50.7777 10.7304C50.6584 10.6437 50.5674 10.5237 50.5159 10.3855C50.4645 10.2474 50.4549 10.0971 50.4884 9.95347L51.1208 7.2094L49.0063 5.36159C48.8944 5.26513 48.8135 5.1378 48.7738 4.99557C48.734 4.85333 48.7371 4.70252 48.7827 4.56205C48.8284 4.42158 48.9144 4.2977 49.0301 4.20594C49.1459 4.11419 49.2861 4.05865 49.4333 4.04628L52.2205 3.80487L53.3084 1.20987C53.3653 1.07371 53.4611 0.957398 53.5839 0.875587C53.7067 0.793776 53.8509 0.750122 53.9984 0.750122C54.146 0.750122 54.2902 0.793776 54.413 0.875587C54.5358 0.957398 54.6316 1.07371 54.6884 1.20987L55.7797 3.80487L58.5659 4.04628C58.7131 4.05865 58.8534 4.11419 58.9691 4.20594C59.0848 4.2977 59.1709 4.42158 59.2165 4.56205C59.2621 4.70252 59.2652 4.85333 59.2255 4.99557C59.1857 5.1378 59.1048 5.26513 58.993 5.36159H58.9906Z" fill="#262626"/>
</g>
<g clip-path="url(#clip4_221_5623)">
<path d="M74.9906 5.36159L72.8766 7.20659L73.5099 9.95347C73.5434 10.0971 73.5338 10.2474 73.4824 10.3855C73.4309 10.5237 73.3399 10.6437 73.2206 10.7304C73.1014 10.8172 72.9592 10.8668 72.8119 10.8732C72.6646 10.8796 72.5186 10.8424 72.3924 10.7663L69.9966 9.31315L67.6059 10.7663C67.4797 10.8424 67.3337 10.8796 67.1864 10.8732C67.0391 10.8668 66.8969 10.8172 66.7777 10.7304C66.6584 10.6437 66.5674 10.5237 66.5159 10.3855C66.4645 10.2474 66.4549 10.0971 66.4884 9.95347L67.1208 7.2094L65.0063 5.36159C64.8944 5.26513 64.8135 5.1378 64.7738 4.99557C64.734 4.85333 64.7371 4.70252 64.7827 4.56205C64.8284 4.42158 64.9144 4.2977 65.0301 4.20594C65.1459 4.11419 65.2861 4.05865 65.4333 4.04628L68.2205 3.80487L69.3084 1.20987C69.3653 1.07371 69.4611 0.957398 69.5839 0.875587C69.7067 0.793776 69.8509 0.750122 69.9984 0.750122C70.146 0.750122 70.2902 0.793776 70.413 0.875587C70.5358 0.957398 70.6316 1.07371 70.6884 1.20987L71.7797 3.80487L74.5659 4.04628C74.7131 4.05865 74.8534 4.11419 74.9691 4.20594C75.0848 4.2977 75.1709 4.42158 75.2165 4.56205C75.2621 4.70252 75.2652 4.85333 75.2255 4.99557C75.1857 5.1378 75.1048 5.26513 74.993 5.36159H74.9906Z" fill="#262626"/>
</g>
<defs>
<clipPath id="clip0_221_5623">
<rect width="12" height="12" fill="white"/>
</clipPath>
<clipPath id="clip1_221_5623">
<rect width="12" height="12" fill="white" transform="translate(16)"/>
</clipPath>
<clipPath id="clip2_221_5623">
<rect width="12" height="12" fill="white" transform="translate(32)"/>
</clipPath>
<clipPath id="clip3_221_5623">
<rect width="12" height="12" fill="white" transform="translate(48)"/>
</clipPath>
<clipPath id="clip4_221_5623">
<rect width="12" height="12" fill="white" transform="translate(64)"/>
</clipPath>
</defs>
</svg>
